<svg xmlns="http://www.w3.org/2000/svg" viewBox="-4.7 0.0 100.0 100.0" role="img" aria-labelledby="t"><title id="t">Green Point Logistics</title><defs><linearGradient id="g" gradientUnits="userSpaceOnUse" x1="0" y1="0" x2="100" y2="0"><stop offset="0" stop-color="#00451F"/><stop offset=".35" stop-color="#0A8A41"/><stop offset=".58" stop-color="#8CC63F"/></linearGradient></defs>
<g fill="url(#g)">
<path d="M0 50l0 .3l1.4-4.1l.8-1.8l-1.5 2l-.5 1.7z"/>
<path d="M.1 46.3l.2 .2l.4-.3l.8-1.2l.7-.6l-.5 .1l-.9-.2l-.5 .7z"/>
<path d="M.3 53l0 .7l1.1-6.2l.9-3l-1.5 3.7l-.4 2.2z"/>
<path d="M.6 42.9l.1 .7l.2 .5l.8 0l.6 .3l-.6-.8l-.5-1.4l-.4-.5z"/>
<path d="M.8 53.3l.2 2.9l.6-7.8l.7-3.9l-1.3 5.1z"/>
<path d="M1.4 52l.2 3.2l.3 2.4l0-9.2l.4-4l-.8 5.1z"/>
<path d="M1.7 40.4l.6 4l-.2-3.2l.5-6.4l-.7 2.8z"/>
<path d="M1.9 50.4l.3 3.7l.7 3.7l-.7-9.8l.1-3.6z"/>
<path d="M2.2 40.9l.1 3.6l.2-4l1.3-7.9l-.6 1.8l-.6 2.6l-.3 2.1z"/>
<path d="M2.3 44.4l.3 6.6l.7 3l.9 2.7l.1-.2l-1.8-9.4z"/>
<path d="M2.3 44.4l.6-3.9l2.1-9l-1.1 2.8l-.9 3.6z"/>
<path d="M2.3 44.4l.9 5.7l1 2.4l1.2 1.9l.1-.2l-1.8-5.7l-.9-2.2z"/>
<path d="M2.3 44.4l.8-3.5l3-9.3l-1.4 2.8l-1.1 3.3z"/>
<path d="M2.3 44.4l1.5 4.2l1.3 1.6l1.4 1l.1-.3l-2-3.4l-.4-.7l-1.3-1.4z"/>
<path d="M2.3 44.4l.9-2.5l3.9-8.7l-.1-.2l-1.5 2.3l-1.4 2.8z"/>
<path d="M2.3 44.4l2 2.3l1.5 .6l1.5 .1l.1-.4l-.5-.5l-2.1-1.6l-.7-.2l-1.2 0z"/>
<path d="M2.3 44.4l.9-1.7l1.4-1.9l3.1-5l0-.3l-1.6 1.6l-1.6 2.1z"/>
<path d="M2.3 44.4l.9 0l1.3 .3l.4-.1l2.3-1l.6-.4l.1-.3l-1.6-.3l-1.5 .1z"/>
<path d="M2.3 44.4l.8-.8l1.6-1l.6-.5l2.7-2.9l0-.2l-1.7 .6l-1.6 1.2z"/>
<path d="M3.1 58.4l.8 5.6l.5 2.2l1.6 3.2l2 3l.2-.1l-1.9-6.8l-1.9-3.7l-1.2-3.4z"/>
<path d="M4.4 57.3l1.5 7.1l.5 1l1.9 2.6l2.2 2.2l.2-.2l-2.4-7.2l-.6-1l-1.9-2.3l-1.3-2.3z"/>
<path d="M5.7 55l2.1 6.7l.6 1l2.2 1.7l2.5 1.3l.1-.5l-3-6.8l-.7-.8l-2.3-1.4l-1.4-1.4z"/>
<path d="M6.4 31l.1 .1l2-3l2.6-3.2l3.5-6.2l-.2-.2l-2.6 2.4l-2.3 2.7l-1 2.1z"/>
<path d="M6.8 51.6l2.8 5.8l.6 .7l2.4 .7l2.7 .2l.1-.6l-3.7-5.9l-.7-.4l-2.2-.2l-1.9-.6z"/>
<path d="M7.4 32.5l.1 .2l1.8-1.9l2.4-1.9l.7-.7l4.1-6.4l-.1-.4l-2.7 1.6l-2.5 2l-.7 1z"/>
<path d="M7.7 47.5l3.4 4.3l.7 .4l2.5-.4l2.7-.8l.1-.6l-2.2-2.4l-2.1-2l-.8-.1l-2.2 .8l-2 .5z"/>
<path d="M8.3 73.1l1.8 4.8l.5 1.2l.7 .9l3.5 3.3l2.2 1.7l.3-.1l-3.1-6.1l-.7-.9l-3.1-2.7l-1.9-2.2z"/>
<path d="M8 35.1l0 .2l1.7-.9l2.6-.9l.8-.5l4.6-5.9l0-.5l-2.8 .6l-2.5 1.1l-.7 .8z"/>
<path d="M8.2 43.2l1.9 1l1.9 1.4l.8 .1l2.5-1.4l2.7-1.8l.1-.6l-2.5-1.5l-2.3-1l-.8 .2l-4.3 3.3z"/>
<path d="M8.3 38.7l0 .3l2-.1l2.2 .4l.8-.2l5-4.9l-.1-.5l-2.6-.5l-2.5 .1l-.7 .5z"/>
<path d="M10.9 70.8l2.7 6.9l.8 1l3 1.8l3.3 1.3l.2-.3l-3.5-7.1l-.8-.8l-2.9-1.3l-2.6-1.8z"/>
<path d="M13.5 66.1l3.3 7.3l.8 .8l3.2 .8l3.5 .3l.2-.6l-4-7.4l-.9-.6l-3.1-.3l-2.8-.7z"/>
<path d="M14.9 18l.2 .1l2.4-1.6l3.6-1.9l.9-.7l4.4-5.3l-.2-.1l-2.3 .9l-4.5 2.5l-.8 .8l-.8 1z"/>
<path d="M15.7 59.3l3.9 7l.9 .6l3.3-.3l3.5-.7l.3-.8l-4.7-7.1l-1-.4l-3.1 .8l-2.9 .3z"/>
<path d="M16.9 20.9l.1 .3l3-1l3.1-.6l1-.6l5.1-6.1l-.2-.4l-3.5 .5l-3.4 1l-.9 .7z"/>
<path d="M17.5 85.5l2.4 3.4l1 1.2l.9 .7l4.6 2.3l2.9 1.1l.3-.2l-2-2.1l-2-2.6l-.9-.6l-3.6-1.5l-3.3-1.8z"/>
<path d="M17.5 51.2l4.6 6l.9 .4l3.4-1.3l3.4-1.7l.2-.9l-5.4-6.1l-.9-.1l-3.1 1.7l-3 1.4z"/>
<path d="M18.2 26.3l.1 .5l2.9 0l3 .5l1-.4l5.7-6.3l-.1-.6l-3.4-.6l-3.3 0l-1 .6z"/>
<path d="M18.6 42.5l2.5 2l2.6 2.5l1 .1l6.6-4.6l.1-.9l-3-2.5l-2.9-2.1l-1 .1l-5.9 4.7z"/>
<path d="M18.8 33.5l0 .6l2.8 1.1l2.8 1.5l1-.1l6.3-5.8l-.1-.8l-3.2-1.6l-3.1-1.1l-1.1 .4z"/>
<path d="M21.2 82.3l3.7 6.2l1 .6l2.8 .7l2.9 .4l2 .2l.4-.5l-4.2-6.2l-1.1-.6l-3.7-.4l-3.5-.8z"/>
<path d="M23.4 7.7l3.9-2l3.8-1.5l3.1-1.6l1.7-.6l-3.3 1.1l-3.2 1.3l-3.2 1.6z"/>
<path d="M23.4 7.7l3.9-2l3.8-1.5l3.1-1.6l1.7-.6l-3.3 1.1l-3.2 1.3l-3.2 1.6z"/>
<path d="M24.8 75.7l4.1 7.1l1 .6l4-.2l4-.7l.3-.7l-4.6-7.2l-1.1-.5l-3.8 .7l-3.6 .3z"/>
<path d="M30.1 95.9l5.9 2.1z"/>
<path d="M26.8 8.1l.2 .2l3.7-1l3.8-.5l1.1-.4l2.5-2.1l2.5-1.7l-.3-.2l-3.1 .3l-4.9 1.1l-1.1 .5l-1.1 .8z"/>
<path d="M28 66.2l4.7 7.5l1 .4l4-1.2l4-1.6l.3-1l-5.2-7.5l-1.1-.3l-3.8 1.6l-3.7 1.3z"/>
<path d="M29.6 12.2l.2 .5l3.6 0l3.7 .6l1.1-.3l5.6-5.2l-.2-.5l-2-.4l-2.9-.3l-3 0l-1 .4z"/>
<path d="M29.9 94.5l2.8 2.1l1.4 .8l1.1 .3l4.8 1l3.5 .4l.4-.2l-2.3-1.2l-2.2-1.7l-1-.3l-4.2-.4l-4-.9z"/>
<path d="M30.5 54.7l5.3 7.1l1.1 .3l3.9-2.1l3.9-2.3l.1-1.1l-5.8-7.2l-1.1-.2l-3.7 2.5l-3.6 2.1z"/>
<path d="M31.5 19.7l.1 .7l3.5 1.1l3.5 1.6l1.2-.2l6.2-5.9l-.1-.8l-3.8-1.7l-3.8-1.1l-1.1 .3z"/>
<path d="M32 42.5l3 2.9l2.9 3.3l1.2 .1l7.3-5.6l.1-1.1l-3.2-3.3l-3.2-2.9l-1.2 0l-6.8 5.7z"/>
<path d="M32.3 29.8l0 .8l3.3 2.2l3.3 2.5l1.1 0l6.8-6.2l0-1l-3.5-2.5l-3.5-2.2l-1.2 .2z"/>
<path d="M34.3 90.7l2 2.4l1.9 2l.4 .4l1.1 .3l3.2-.1l3.2-.3l2.1-.4l.4-.5l-2.3-2.2l-2.2-2.6l-1.1-.3l-4.2 .7l-4.2 .1z"/>
<path d="M39.9 1l3.2-.5l5.1-.5l-3.6 .3z"/>
<path d="M38.6 82.8l4.6 6.3l1.1 .3l3.9-1.1l3.9-1.4l.7-.3l.3-.8l-4.8-6.3l-1.1-.2l-4.2 1.6l-4.1 1.2z"/>
<path d="M40.9 2.2l.3 .2l4.1 .1l4.1 .6l1.1-.1l2.6-1.1l2.4-.8l-.3-.2l-3.4-.5l-5-.2l-1.1 .1l-1.6 .4z"/>
<path d="M42.4 71.4l5 7.2l1.1 .3l4.2-2l4.1-2.4l.3-1l-5.2-7.3l-1.1-.2l-4.1 2.4l-4 2z"/>
<path d="M44.3 7.2l.2 .5l4 1.2l3.9 1.7l1.2-.1l2.8-2l2.7-1.7l-.2-.6l-2-.9l-3.1-1.1l-3-.8l-1.2 .1l-.4 .2l-2.4 1.6z"/>
<path d="M44.2 99.2l2.7 .7l3.3 .1l4.7-.2l3.8-.7l-1.8-.1l-2.7-.7l-1.1 0l-3.9 .6l-4.7 .2z"/>
<path d="M45.3 57.8l5.6 7.6l1.1 .2l7.9-5.6l.2-1.1l-5.8-7.6l-1.1-.1l-7.7 5.5z"/>
<path d="M46.5 16.1l.1 .8l3.8 2.2l3.6 2.6l1.2 0l6.1-5.2l-.1-.8l-.6-.5l-3.5-2.3l-3.5-2l-1.2 .1z"/>
<path d="M47.1 43.2l6.2 7.2l1.1 .2l7.4-6.1l.1-1.1l-6.4-7.3l-1.1-.1l-7.2 6.1z"/>
<path d="M47.5 28.1l0 1l3.5 3l3.3 3.3l1.2 0l6.8-5.9l0-1l-3.5-3.3l-3.6-3l-1.1 0z"/>
<path d="M48.9 95.2l1.9 1.4l1.8 1.2l.8 .3l1.1 0l2.9-.7l3.1-1.1l2.5-.9l.3-.5l-2.2-1.2l-2.2-1.7l-1.1 0l-4.2 1.5l-4.3 1.2z"/>
<path d="M53.4 86.7l2.3 2.6l2.3 2.2l1.1 0l3.5-1.6l3.7-2.1l1-.7l.3-.7l-2.2-2.2l-2.2-2.6l-1.1-.1l-4.2 2.4l-4.2 2z"/>
<path d="M56 1l.3 .2l4.5 1.3l3.6 1.6l1.1 .2l2.4-.1l2.2 .3l-3.6-1.7l-4.4-1.3l-3.1-.6z"/>
<path d="M57.5 74.6l4.8 6.3l1.1 .1l4-2.7l3.9-2.9l.2-.9l-4.7-6.4l-1.1-.1l-3.9 2.9l-4 2.7z"/>
<path d="M59.1 99.1l3.1-.6l3.5-1l3.3-1.2l3.2-1.5l-1.6 .7l-3 .7l-4.4 1.7z"/>
<path d="M59.5 6.2l.2 .6l3.9 2.2l3.8 2.5l1.1 .3l2.5-1.2l2.4-.8l-.2-.5l-2.1-1.6l-2.9-1.8l-2.5-1.4l-1.1-.2l-.8 .2l-2.1 .7z"/>
<path d="M61.9 15.7l.1 .9l3.6 3l3.5 3.2l1.1 .2l5.5-3.7l-.2-.8l-.5-.6l-3.2-3l-3.2-2.7l-1.1-.2l-2.7 1.7z"/>
<path d="M63 28.6l0 1.1l3.3 3.5l3.2 3.7l1 .2l6.1-5.1l0-1.1l-3.1-3.7l-3.2-3.5l-1.1-.2z"/>
<path d="M63.6 95.2l1.6 .5l1.4 .3l1.2 0l1.1-.3l4.8-2.7l2.7-1.8l.3-.4l-1.8-.2l-2-.6l-1 .3l-3.9 2.4l-4.1 2z"/>
<path d="M68 87.1l2.1 1.7l1.9 1.1l.1 .1l1-.3l5.8-4.3l1.4-1.3l.3-.6l-1.8-1.2l-1.9-1.7l-1 .2l-3.7 2.9l-3.9 2.6z"/>
<path d="M76.4 92.5l2.4-1.6l2.9-2.2z"/>
<path d="M73.8 9.5l.2 .6l3.5 2.9l3.2 3.3l.9 .5l2.1-.3l1.8 .3l-.2-.5l-2.2-2.4l-4-3.7l-1-.6l-1-.2l-1.6-.1z"/>
<path d="M77 90.9l2.1-.6l1.9-1.1l3.5-3.1l3.1-3.3l-1.3 .9l-1.6 .6l-.8 .5l-3.2 3l-3.4 2.7z"/>
<path d="M80.8 83.9l1.7 .6l1.6 .1l.8-.6l2.6-2.8l2.8-3.4l.2-.5l-1.3-.1l-1.3-.5l-.7 .3l-2.9 3.2l-3.2 3z"/>
</g>
</svg>
