<svg xmlns="http://www.w3.org/2000/svg" viewBox="0 0 942 432" role="img" aria-labelledby="t"><title id="t">Green Point Logistics</title>
<g fill="#FFFFFF"><g transform="translate(-4.9 2.3) scale(4.2751)">
<path d="M0 50l0 .3l1.4-4.1l.8-1.8l-1.5 2l-.5 1.7z"/>
<path d="M.1 46.3l.2 .2l.4-.3l.8-1.2l.7-.6l-.5 .1l-.9-.2l-.5 .7z"/>
<path d="M.3 53l0 .7l1.1-6.2l.9-3l-1.5 3.7l-.4 2.2z"/>
<path d="M.6 42.9l.1 .7l.2 .5l.8 0l.6 .3l-.6-.8l-.5-1.4l-.4-.5z"/>
<path d="M.8 53.3l.2 2.9l.6-7.8l.7-3.9l-1.3 5.1z"/>
<path d="M1.4 52l.2 3.2l.3 2.4l0-9.2l.4-4l-.8 5.1z"/>
<path d="M1.7 40.4l.6 4l-.2-3.2l.5-6.4l-.7 2.8z"/>
<path d="M1.9 50.4l.3 3.7l.7 3.7l-.7-9.8l.1-3.6z"/>
<path d="M2.2 40.9l.1 3.6l.2-4l1.3-7.9l-.6 1.8l-.6 2.6l-.3 2.1z"/>
<path d="M2.3 44.4l.3 6.6l.7 3l.9 2.7l.1-.2l-1.8-9.4z"/>
<path d="M2.3 44.4l.6-3.9l2.1-9l-1.1 2.8l-.9 3.6z"/>
<path d="M2.3 44.4l.9 5.7l1 2.4l1.2 1.9l.1-.2l-1.8-5.7l-.9-2.2z"/>
<path d="M2.3 44.4l.8-3.5l3-9.3l-1.4 2.8l-1.1 3.3z"/>
<path d="M2.3 44.4l1.5 4.2l1.3 1.6l1.4 1l.1-.3l-2-3.4l-.4-.7l-1.3-1.4z"/>
<path d="M2.3 44.4l.9-2.5l3.9-8.7l-.1-.2l-1.5 2.3l-1.4 2.8z"/>
<path d="M2.3 44.4l2 2.3l1.5 .6l1.5 .1l.1-.4l-.5-.5l-2.1-1.6l-.7-.2l-1.2 0z"/>
<path d="M2.3 44.4l.9-1.7l1.4-1.9l3.1-5l0-.3l-1.6 1.6l-1.6 2.1z"/>
<path d="M2.3 44.4l.9 0l1.3 .3l.4-.1l2.3-1l.6-.4l.1-.3l-1.6-.3l-1.5 .1z"/>
<path d="M2.3 44.4l.8-.8l1.6-1l.6-.5l2.7-2.9l0-.2l-1.7 .6l-1.6 1.2z"/>
<path d="M3.1 58.4l.8 5.6l.5 2.2l1.6 3.2l2 3l.2-.1l-1.9-6.8l-1.9-3.7l-1.2-3.4z"/>
<path d="M4.4 57.3l1.5 7.1l.5 1l1.9 2.6l2.2 2.2l.2-.2l-2.4-7.2l-.6-1l-1.9-2.3l-1.3-2.3z"/>
<path d="M5.7 55l2.1 6.7l.6 1l2.2 1.7l2.5 1.3l.1-.5l-3-6.8l-.7-.8l-2.3-1.4l-1.4-1.4z"/>
<path d="M6.4 31l.1 .1l2-3l2.6-3.2l3.5-6.2l-.2-.2l-2.6 2.4l-2.3 2.7l-1 2.1z"/>
<path d="M6.8 51.6l2.8 5.8l.6 .7l2.4 .7l2.7 .2l.1-.6l-3.7-5.9l-.7-.4l-2.2-.2l-1.9-.6z"/>
<path d="M7.4 32.5l.1 .2l1.8-1.9l2.4-1.9l.7-.7l4.1-6.4l-.1-.4l-2.7 1.6l-2.5 2l-.7 1z"/>
<path d="M7.7 47.5l3.4 4.3l.7 .4l2.5-.4l2.7-.8l.1-.6l-2.2-2.4l-2.1-2l-.8-.1l-2.2 .8l-2 .5z"/>
<path d="M8.3 73.1l1.8 4.8l.5 1.2l.7 .9l3.5 3.3l2.2 1.7l.3-.1l-3.1-6.1l-.7-.9l-3.1-2.7l-1.9-2.2z"/>
<path d="M8 35.1l0 .2l1.7-.9l2.6-.9l.8-.5l4.6-5.9l0-.5l-2.8 .6l-2.5 1.1l-.7 .8z"/>
<path d="M8.2 43.2l1.9 1l1.9 1.4l.8 .1l2.5-1.4l2.7-1.8l.1-.6l-2.5-1.5l-2.3-1l-.8 .2l-4.3 3.3z"/>
<path d="M8.3 38.7l0 .3l2-.1l2.2 .4l.8-.2l5-4.9l-.1-.5l-2.6-.5l-2.5 .1l-.7 .5z"/>
<path d="M10.9 70.8l2.7 6.9l.8 1l3 1.8l3.3 1.3l.2-.3l-3.5-7.1l-.8-.8l-2.9-1.3l-2.6-1.8z"/>
<path d="M13.5 66.1l3.3 7.3l.8 .8l3.2 .8l3.5 .3l.2-.6l-4-7.4l-.9-.6l-3.1-.3l-2.8-.7z"/>
<path d="M14.9 18l.2 .1l2.4-1.6l3.6-1.9l.9-.7l4.4-5.3l-.2-.1l-2.3 .9l-4.5 2.5l-.8 .8l-.8 1z"/>
<path d="M15.7 59.3l3.9 7l.9 .6l3.3-.3l3.5-.7l.3-.8l-4.7-7.1l-1-.4l-3.1 .8l-2.9 .3z"/>
<path d="M16.9 20.9l.1 .3l3-1l3.1-.6l1-.6l5.1-6.1l-.2-.4l-3.5 .5l-3.4 1l-.9 .7z"/>
<path d="M17.5 85.5l2.4 3.4l1 1.2l.9 .7l4.6 2.3l2.9 1.1l.3-.2l-2-2.1l-2-2.6l-.9-.6l-3.6-1.5l-3.3-1.8z"/>
<path d="M17.5 51.2l4.6 6l.9 .4l3.4-1.3l3.4-1.7l.2-.9l-5.4-6.1l-.9-.1l-3.1 1.7l-3 1.4z"/>
<path d="M18.2 26.3l.1 .5l2.9 0l3 .5l1-.4l5.7-6.3l-.1-.6l-3.4-.6l-3.3 0l-1 .6z"/>
<path d="M18.6 42.5l2.5 2l2.6 2.5l1 .1l6.6-4.6l.1-.9l-3-2.5l-2.9-2.1l-1 .1l-5.9 4.7z"/>
<path d="M18.8 33.5l0 .6l2.8 1.1l2.8 1.5l1-.1l6.3-5.8l-.1-.8l-3.2-1.6l-3.1-1.1l-1.1 .4z"/>
<path d="M21.2 82.3l3.7 6.2l1 .6l2.8 .7l2.9 .4l2 .2l.4-.5l-4.2-6.2l-1.1-.6l-3.7-.4l-3.5-.8z"/>
<path d="M23.4 7.7l3.9-2l3.8-1.5l3.1-1.6l1.7-.6l-3.3 1.1l-3.2 1.3l-3.2 1.6z"/>
<path d="M23.4 7.7l3.9-2l3.8-1.5l3.1-1.6l1.7-.6l-3.3 1.1l-3.2 1.3l-3.2 1.6z"/>
<path d="M24.8 75.7l4.1 7.1l1 .6l4-.2l4-.7l.3-.7l-4.6-7.2l-1.1-.5l-3.8 .7l-3.6 .3z"/>
<path d="M30.1 95.9l5.9 2.1z"/>
<path d="M26.8 8.1l.2 .2l3.7-1l3.8-.5l1.1-.4l2.5-2.1l2.5-1.7l-.3-.2l-3.1 .3l-4.9 1.1l-1.1 .5l-1.1 .8z"/>
<path d="M28 66.2l4.7 7.5l1 .4l4-1.2l4-1.6l.3-1l-5.2-7.5l-1.1-.3l-3.8 1.6l-3.7 1.3z"/>
<path d="M29.6 12.2l.2 .5l3.6 0l3.7 .6l1.1-.3l5.6-5.2l-.2-.5l-2-.4l-2.9-.3l-3 0l-1 .4z"/>
<path d="M29.9 94.5l2.8 2.1l1.4 .8l1.1 .3l4.8 1l3.5 .4l.4-.2l-2.3-1.2l-2.2-1.7l-1-.3l-4.2-.4l-4-.9z"/>
<path d="M30.5 54.7l5.3 7.1l1.1 .3l3.9-2.1l3.9-2.3l.1-1.1l-5.8-7.2l-1.1-.2l-3.7 2.5l-3.6 2.1z"/>
<path d="M31.5 19.7l.1 .7l3.5 1.1l3.5 1.6l1.2-.2l6.2-5.9l-.1-.8l-3.8-1.7l-3.8-1.1l-1.1 .3z"/>
<path d="M32 42.5l3 2.9l2.9 3.3l1.2 .1l7.3-5.6l.1-1.1l-3.2-3.3l-3.2-2.9l-1.2 0l-6.8 5.7z"/>
<path d="M32.3 29.8l0 .8l3.3 2.2l3.3 2.5l1.1 0l6.8-6.2l0-1l-3.5-2.5l-3.5-2.2l-1.2 .2z"/>
<path d="M34.3 90.7l2 2.4l1.9 2l.4 .4l1.1 .3l3.2-.1l3.2-.3l2.1-.4l.4-.5l-2.3-2.2l-2.2-2.6l-1.1-.3l-4.2 .7l-4.2 .1z"/>
<path d="M39.9 1l3.2-.5l5.1-.5l-3.6 .3z"/>
<path d="M38.6 82.8l4.6 6.3l1.1 .3l3.9-1.1l3.9-1.4l.7-.3l.3-.8l-4.8-6.3l-1.1-.2l-4.2 1.6l-4.1 1.2z"/>
<path d="M40.9 2.2l.3 .2l4.1 .1l4.1 .6l1.1-.1l2.6-1.1l2.4-.8l-.3-.2l-3.4-.5l-5-.2l-1.1 .1l-1.6 .4z"/>
<path d="M42.4 71.4l5 7.2l1.1 .3l4.2-2l4.1-2.4l.3-1l-5.2-7.3l-1.1-.2l-4.1 2.4l-4 2z"/>
<path d="M44.3 7.2l.2 .5l4 1.2l3.9 1.7l1.2-.1l2.8-2l2.7-1.7l-.2-.6l-2-.9l-3.1-1.1l-3-.8l-1.2 .1l-.4 .2l-2.4 1.6z"/>
<path d="M44.2 99.2l2.7 .7l3.3 .1l4.7-.2l3.8-.7l-1.8-.1l-2.7-.7l-1.1 0l-3.9 .6l-4.7 .2z"/>
<path d="M45.3 57.8l5.6 7.6l1.1 .2l7.9-5.6l.2-1.1l-5.8-7.6l-1.1-.1l-7.7 5.5z"/>
<path d="M46.5 16.1l.1 .8l3.8 2.2l3.6 2.6l1.2 0l6.1-5.2l-.1-.8l-.6-.5l-3.5-2.3l-3.5-2l-1.2 .1z"/>
<path d="M47.1 43.2l6.2 7.2l1.1 .2l7.4-6.1l.1-1.1l-6.4-7.3l-1.1-.1l-7.2 6.1z"/>
<path d="M47.5 28.1l0 1l3.5 3l3.3 3.3l1.2 0l6.8-5.9l0-1l-3.5-3.3l-3.6-3l-1.1 0z"/>
<path d="M48.9 95.2l1.9 1.4l1.8 1.2l.8 .3l1.1 0l2.9-.7l3.1-1.1l2.5-.9l.3-.5l-2.2-1.2l-2.2-1.7l-1.1 0l-4.2 1.5l-4.3 1.2z"/>
<path d="M53.4 86.7l2.3 2.6l2.3 2.2l1.1 0l3.5-1.6l3.7-2.1l1-.7l.3-.7l-2.2-2.2l-2.2-2.6l-1.1-.1l-4.2 2.4l-4.2 2z"/>
<path d="M56 1l.3 .2l4.5 1.3l3.6 1.6l1.1 .2l2.4-.1l2.2 .3l-3.6-1.7l-4.4-1.3l-3.1-.6z"/>
<path d="M57.5 74.6l4.8 6.3l1.1 .1l4-2.7l3.9-2.9l.2-.9l-4.7-6.4l-1.1-.1l-3.9 2.9l-4 2.7z"/>
<path d="M59.1 99.1l3.1-.6l3.5-1l3.3-1.2l3.2-1.5l-1.6 .7l-3 .7l-4.4 1.7z"/>
<path d="M59.5 6.2l.2 .6l3.9 2.2l3.8 2.5l1.1 .3l2.5-1.2l2.4-.8l-.2-.5l-2.1-1.6l-2.9-1.8l-2.5-1.4l-1.1-.2l-.8 .2l-2.1 .7z"/>
<path d="M61.9 15.7l.1 .9l3.6 3l3.5 3.2l1.1 .2l5.5-3.7l-.2-.8l-.5-.6l-3.2-3l-3.2-2.7l-1.1-.2l-2.7 1.7z"/>
<path d="M63 28.6l0 1.1l3.3 3.5l3.2 3.7l1 .2l6.1-5.1l0-1.1l-3.1-3.7l-3.2-3.5l-1.1-.2z"/>
<path d="M63.6 95.2l1.6 .5l1.4 .3l1.2 0l1.1-.3l4.8-2.7l2.7-1.8l.3-.4l-1.8-.2l-2-.6l-1 .3l-3.9 2.4l-4.1 2z"/>
<path d="M68 87.1l2.1 1.7l1.9 1.1l.1 .1l1-.3l5.8-4.3l1.4-1.3l.3-.6l-1.8-1.2l-1.9-1.7l-1 .2l-3.7 2.9l-3.9 2.6z"/>
<path d="M76.4 92.5l2.4-1.6l2.9-2.2z"/>
<path d="M73.8 9.5l.2 .6l3.5 2.9l3.2 3.3l.9 .5l2.1-.3l1.8 .3l-.2-.5l-2.2-2.4l-4-3.7l-1-.6l-1-.2l-1.6-.1z"/>
<path d="M77 90.9l2.1-.6l1.9-1.1l3.5-3.1l3.1-3.3l-1.3 .9l-1.6 .6l-.8 .5l-3.2 3l-3.4 2.7z"/>
<path d="M80.8 83.9l1.7 .6l1.6 .1l.8-.6l2.6-2.8l2.8-3.4l.2-.5l-1.3-.1l-1.3-.5l-.7 .3l-2.9 3.2l-3.2 3z"/>
</g>
<path d="M647.8 321.4C647.6 321.2 647.5 316.4 647.5 301.2L647.5 281.3L648.1 281.1C648.4 281 650.3 281 652.2 281.1L655.9 281.1L655.9 297.7C656 306.9 656.1 314.5 656.2 314.6C656.3 314.7 660.7 314.8 666 314.8C672.3 314.7 675.7 314.8 676 315C676.5 315.2 676.5 315.5 676.5 318.2C676.5 320.2 676.4 321.3 676.2 321.5C675.8 321.9 648.2 321.9 647.8 321.4ZM691.8 321.3C689.6 320.6 688.8 320.1 687.5 318.8C686.3 317.7 685 315.9 685 315.5C685 315.3 684.8 314.8 684.6 314.4C683.7 312.8 683.7 305.7 684.6 304C684.8 303.6 685 303.2 685 303C685 301.9 688.3 298.6 690.5 297.6C691.8 296.9 692 296.9 695.6 296.9C699.4 296.9 699.4 296.9 701.1 297.7C705.8 300.1 708 305 707.3 311.5C707.1 313 706.7 314.5 706.5 315C706.2 315.5 706 316 706 316.1C706 316.7 702.9 320 702.4 320C702.3 320 701.9 320.2 701.5 320.5C699.7 321.7 694.3 322.2 691.8 321.3ZM726.3 321.3C725.5 321.1 724.7 320.7 724.5 320.6C724.3 320.4 723.7 320.1 723.2 319.9C722.3 319.4 720 317.2 720 316.7C720 316.6 719.8 316.2 719.6 315.8C718.6 314.3 718.1 312.3 718.1 309.1C718.1 306 718.6 303.9 719.6 302.5C719.8 302.1 720 301.7 720 301.5C720 301.2 723.5 298 723.9 298C724 298 724.6 297.8 725.1 297.4C726.7 296.6 733.2 296.6 735.2 297.5C737.5 298.5 740.2 301.6 740.2 303.3C740.2 303.8 739.5 304.2 738.8 304.2C738.5 304.2 737.7 304.4 737 304.7C735.6 305.1 735 304.9 735 304C735 303.4 733.6 302.1 732.2 301.5C729.2 300.1 724.8 302.1 723.8 305.4C722.5 309.8 723.6 314.3 726.5 316.3C727.6 317.1 727.7 317.1 730.1 317.1C733.6 317.1 735.5 316 735.5 314C735.5 312.8 735 312.5 732.5 312.5C730 312.5 730 312.5 730 310.1C730 308.8 730.1 308.5 730.4 308.3C730.7 308.2 733.1 308.2 735.8 308.2L740.6 308.4L740.7 313.2L740.8 318L739.9 318.7C739.4 319.1 738.7 319.6 738.3 319.7C737.9 319.9 737.3 320.2 736.9 320.4C734.6 321.6 729.2 322.1 726.3 321.3ZM792.8 321.3C790.2 320.4 788.6 318.8 787.5 316.3C786.4 313.6 786.8 313 789.9 313C791.5 313 791.8 313.1 791.9 313.4C792.8 316.5 795.2 317.9 798.2 317.3C799.7 316.9 800.4 316.5 800.9 315.5C802 313.3 800.3 311.8 795.8 311C795 310.8 794.1 310.5 793.7 310.4C793.3 310.2 792.8 310 792.6 310C792.2 310 790.4 308.9 789.6 308.1C788.3 306.9 787.9 305.7 787.9 303.6C787.9 300.8 789 298.9 791.6 297.6C793.6 296.5 799.7 296.5 801.8 297.6C804.1 298.8 805.5 300.6 805.9 302.9C806.1 304.2 806.1 304.2 803.4 304.3L801.1 304.4L800.5 303.2C799.6 301.5 798.7 301 796.6 301C794.4 301 793 301.8 793 303.1C793 303.9 793.8 305 794.4 305C794.5 305 795.1 305.2 795.6 305.5C796.2 305.8 796.9 306 797.1 306C797.8 306 800.7 306.9 802.4 307.6C808.6 310.2 807.9 319.2 801.3 321.2C799.1 321.9 794.5 321.9 792.8 321.3ZM894.7 321.3C894.1 321.1 893.3 320.7 892.9 320.4C892.6 320.2 892.2 320 892 320C891.7 320 889 317 889 316.7C889 316.6 888.8 316.2 888.5 315.8C886.8 313.2 886.9 305.7 888.8 302.2C889.4 301.1 892.3 298 892.8 298C893 298 893.6 297.8 894.1 297.4C895.8 296.5 901.6 296.6 903.5 297.6C905.4 298.7 906.8 300 907.6 301.7C908.5 303.6 908.4 303.8 906.6 304.4C904.2 305.1 903.1 305 903 304.2C902.9 302.6 899.7 300.8 897.6 301.1C893.8 301.7 891.9 305.7 892.7 311.3C893.3 315.6 894.9 317.1 898.4 317.1L900.6 317.1L901.8 315.8C902.5 315 903 314.2 903 313.9C903 312.8 903.6 312.4 904.8 312.7C905.4 312.8 906.2 313 906.6 313.1C907.5 313.3 908.3 313.9 908.2 314.5C908.2 315.9 906 319.1 904.1 320.4C902.3 321.6 897 322.1 894.7 321.3ZM928.5 321.5C928.3 321.4 927.7 321.2 927.3 321.1C925.5 320.8 923.9 319.4 922.8 317.2C921.1 314.1 921.6 313 924.7 313C926.8 313 927 313.1 927 314.2C927 314.4 927.4 315.1 927.9 315.7C930.4 318.7 936 317.6 936 314.2C936 313 935.1 312.3 933 311.6C932 311.3 931 311 930.8 311C930.1 311 926.7 309.7 925.7 309.1C921.2 306.3 921.6 299.9 926.5 297.6C928.5 296.6 934.3 296.5 936.4 297.5C938.1 298.2 939.8 300 940.3 301.6C941.1 303.9 940.9 304.2 938 304.3L935.9 304.4L935.3 303.2C934.3 301.5 933.5 301 931.4 301C929.2 301 928.1 301.6 927.9 302.9C927.7 303.9 928.2 305 928.9 305C929.2 305 929.8 305.2 930.4 305.5C930.9 305.8 931.7 306 932 306C932.4 306 933.3 306.2 934.1 306.5C934.8 306.8 935.7 307 935.9 307C936.5 307 938.6 308.2 939.4 309.1C940.6 310.4 940.8 310.6 941.2 312.3C942.2 316.2 940.1 320 936.2 321.2C934.9 321.6 929.1 321.9 928.5 321.5ZM760.9 321C760.3 320.6 760.3 297.4 760.9 297.2C761.1 297.1 762.1 297 763 297C763.9 297 764.9 297.1 765.1 297.2C765.5 297.3 765.5 298.6 765.5 309C765.5 320.3 765.5 320.7 765 321C764.4 321.3 761.5 321.3 760.9 321ZM828.3 320.9C828.1 320.7 828 318.3 828 311.5C828 306.4 827.9 302.1 827.8 301.9C827.7 301.6 827.2 301.5 824.5 301.5C821.6 301.5 821.2 301.5 821 301C820.7 300.4 820.7 297.7 821 297.3C821.5 296.9 839.5 296.9 840 297.3C840.3 297.7 840.3 300.4 840 301C839.8 301.5 839.4 301.5 836.5 301.5C833.8 301.5 833.3 301.6 833.2 301.9C833.1 302.1 833 306.4 833 311.5C833 318.3 832.9 320.7 832.7 320.9C832.5 321.1 831.6 321.2 830.5 321.2C829.4 321.2 828.5 321.1 828.3 320.9ZM861.9 321C861.3 320.6 861.3 297.4 861.9 297.2C862.5 296.9 866.5 297 866.6 297.2C866.9 297.8 866.8 320.8 866.4 321C866 321.3 862.4 321.3 861.9 321ZM699.5 316C701.4 314.4 702.1 312.6 702.1 309C702.1 306.4 702 306 701.4 304.9C699.5 301.3 696.2 300.1 692.9 301.8C688.2 304 687.8 313.4 692.3 316.3C693.4 317.1 694 317.2 696.3 317.1C698.2 317 698.4 317 699.5 316ZM334.8 268.2C334.7 268 334.4 266.8 334.3 265.5C333.6 260.8 331.6 257.7 328.5 256.7C326.2 255.9 321.9 256.4 320.3 257.6C319.9 257.8 319.5 258 319.3 258C319.1 258 318.7 258.2 318.3 258.5C316.5 259.7 313.1 261.9 312.5 262.2C312.2 262.4 311.7 262.6 311.5 262.7C308.9 264.2 306.1 265.3 302 266.4C299.3 267.1 292.3 267.4 290 266.8C289.4 266.6 288.1 266.3 287.2 266.1C286.3 265.9 285.3 265.6 284.9 265.4C284.5 265.2 283.9 265 283.7 265C283.5 265 283 264.8 282.7 264.5C282.3 264.2 281.9 264 281.7 264C281.5 264 281 263.8 280.7 263.5C280.3 263.2 279.9 263 279.7 263C279.5 263 279.1 262.8 278.9 262.5C278.6 262.2 278.3 262 278.1 262C277.3 262 271.4 257 269.3 254.5C267.8 252.7 266.2 250.5 266 250.1C266 250 265.8 249.7 265.6 249.5C265.3 249.1 264.4 247.3 263.6 245.5C262.2 242.6 262 242 262 241.6C262 241.3 261.8 240.8 261.6 240.4C261.4 240 261.1 239 261 238.2C260.8 237.4 260.6 236.4 260.5 236.1C260.1 235.1 259.5 228.4 259.5 225.4C259.5 220.4 260.3 214.5 261.5 210.9C261.8 210.1 262 209.1 262 208.9C262 208.6 262.2 208.1 262.4 207.9C262.5 207.6 262.8 206.9 263 206.3C263.3 205.3 263.8 204 264.7 202.3C264.9 202 265.1 201.5 265.2 201.2C265.4 201 265.6 200.6 265.7 200.3C265.9 200.1 266 199.7 266.1 199.5C266.2 199.3 266.5 198.7 266.8 198.2C267.1 197.7 267.7 196.8 268.1 196.1C269.3 194.3 271.9 191.1 274 188.9C276.4 186.4 281.8 182 282.5 182C282.6 182 282.8 181.8 283 181.6C283.2 181.4 283.7 181.1 284.1 180.9C284.5 180.7 285.3 180.2 285.9 179.9C286.4 179.5 287 179.2 287.2 179.1C287.5 179 288.1 178.8 288.6 178.5C291.1 177.4 291.7 177.2 292.8 176.9C293.4 176.7 294.2 176.4 294.6 176.3C297.3 175.3 299.9 174.8 304.8 174.2C309.6 173.6 319.9 174.2 324.9 175.4C325.8 175.6 327.4 176 328.2 176.1C330 176.5 332.9 177.2 334.8 177.8L335.9 178.2L335.9 188.3C336 193.8 336 198.6 335.9 198.9C335.7 199.5 335.6 199.5 333.5 199.5C330.9 199.5 330.8 199.4 330.2 196.6C329.7 194.5 329 192.6 328.4 191.7C328.2 191.3 328 191 328 190.9C328 190.1 324.7 186.4 322.4 184.6C320.5 183 320 182.7 317.9 181.7C317.7 181.6 317.3 181.4 317.1 181.3C311.3 178.4 299 178 293.3 180.5C292.7 180.8 292 181 291.8 181C291.6 181 291.1 181.2 290.8 181.5C290.4 181.8 290 182 289.8 182C289.5 182 289.1 182.2 288.8 182.5C288.4 182.8 288 183 287.9 183C287.7 183 287.4 183.2 287.1 183.4C282.9 186.6 280.5 188.9 279.1 191C278.8 191.5 278.2 192.3 277.8 192.9C273.1 199.7 271.1 208.7 271.7 219.2C271.9 221.8 272.2 224.4 272.4 225.1C272.6 225.8 272.8 226.9 272.9 227.5C273 228.1 273.3 229.3 273.5 230.1C273.8 230.9 274 231.7 274 231.9C274 232.1 274.2 232.8 274.5 233.3C274.8 233.9 275.3 235.1 275.6 236C276.4 238.1 277.4 240.2 277.8 240.4C277.9 240.5 278 240.7 278 240.9C278 241.6 281.7 246.7 284 249.1C285.5 250.7 289.6 254 290.1 254C290.2 254 290.6 254.2 290.9 254.5C292.7 256.1 299.9 258 304.6 258C307.7 258 312.1 257.2 313.6 256.4C314 256.2 314.6 256 314.8 256C315 256 315.3 255.8 315.5 255.6C315.7 255.4 316 255.2 316.3 255.1C316.6 255 317.3 254.6 317.9 254.3C320.4 252.6 323.1 249.9 324 248.1C324.2 247.7 324.5 247.2 324.7 246.9C325.5 245.4 325.9 243.3 325.9 240.8C325.9 237.2 325.4 235.6 323.5 233.7C321.1 231.3 319 230.6 314.4 230.4C310 230.2 310.2 230.3 310.2 228.5C310.2 227.4 310.3 227 310.6 226.9C311.5 226.6 344.6 226.7 344.9 227C345.3 227.4 345.3 229.6 345 229.9C344.8 230.1 344.5 230.2 344.3 230.2C343.3 230.2 340 232.6 340 233.3C340 233.4 339.8 233.8 339.6 234.2C338.3 236.1 338.3 237.1 338.3 252.8C338.3 262.5 338.2 267.7 338 268C337.7 268.6 335.2 268.7 334.8 268.2ZM431.2 267C430.2 266.9 429 266.6 428.4 266.4C427.9 266.2 427.4 266 427.2 266C426.7 266 422.3 263.9 422 263.5C421.9 263.4 421.6 263.2 421.2 262.9C420 262.2 416.6 258.8 415.6 257.4C415.1 256.7 414.6 256.1 414.5 256C414.4 255.9 414 255.4 413.6 254.8C413.2 254.1 412.7 253.3 412.5 252.9C412.2 252.6 412 252.1 412 251.9C412 251.8 411.8 251.3 411.5 251C411.2 250.7 411 250.2 411 250.1C411 249.9 410.8 249.3 410.5 248.7C408.2 243.4 407.7 234.9 409.2 227.9C409.8 225.5 410.3 223.8 410.6 223.1C410.8 222.7 411 222.2 411 222C411 221.8 411.2 221.2 411.5 220.7C411.8 220.1 412.2 219.4 412.3 219.1C412.5 218.8 412.7 218.5 412.8 218.2C412.9 218 413 217.7 413.1 217.5C413.2 217.3 413.5 216.7 413.8 216.2C419.6 206.7 427 201.1 435.6 199.7C438.9 199.2 445.9 199.7 447.6 200.6C448 200.8 448.6 201 448.9 201C449.2 201 449.5 201.1 449.6 201.2C449.7 201.3 450.2 201.7 450.8 202C453.3 203.2 457.9 207.7 458.9 209.9C459.1 210.3 459.4 210.8 459.6 211C459.8 211.2 460 211.5 460 211.7C460 212 460.1 212.4 460.3 212.6C460.6 213.1 461.7 216.2 462.2 218.4C462.7 220.1 463.1 224.3 462.8 224.5C462.7 224.7 454.2 224.8 440.6 224.8C421.1 224.7 418.5 224.8 418.3 225.1C417.8 225.7 418.1 234.1 418.6 236.1C419.8 240.7 420.2 241.7 421.6 244.5C422.6 246.5 423.2 247.4 424.5 249.2C426.5 251.7 430.4 255 431.4 255C431.5 255 432 255.2 432.3 255.5C432.7 255.8 433.2 256 433.4 256C433.7 256 434.2 256.2 434.6 256.4C436.6 257.4 443.2 257.4 446.1 256.5C448.6 255.6 450.3 254.9 451 254.4C451.4 254.2 451.8 254 451.9 254C451.9 254 452.3 253.8 452.7 253.5C453.1 253.3 453.9 252.7 454.6 252.3C456.4 251.1 458.3 249.5 461.6 246.2C463.2 244.6 464.6 243.2 464.8 243.2C464.9 243.2 465 244.3 465 245.5L465 247.7L463.5 249.7C462.6 250.7 460.5 253 458.8 254.8C456.1 257.4 454.8 258.5 451.2 261.3C450.5 261.9 448.8 263 448.6 263C448.5 263 448.1 263.2 447.8 263.5C447.4 263.8 447 264 446.8 264C446.6 264 446.2 264.2 445.8 264.4C444.9 265 443.1 265.7 440.4 266.5C438.3 267.1 434 267.3 431.2 267ZM493.6 267C488.2 266.4 482.5 263 478.5 258.1C475.5 254.4 472 248.2 472 246.4C472 246.2 471.8 245.3 471.5 244.5C470.6 242 470.6 231.4 471.4 228.3C471.7 227.2 472 226.1 472 225.8C472 225.6 472.2 224.9 472.5 224.4C472.8 223.8 473 223.2 473 222.9C473 222.7 473.2 222.1 473.5 221.5C473.7 221 474.2 220.1 474.5 219.4C477.4 213.4 482.8 206.7 486.9 204.2C487.4 203.9 487.9 203.6 488 203.5C488.3 203.1 492.7 201 493.2 201C493.3 201 494 200.8 494.7 200.5C498.1 199.2 507 199.2 510.4 200.6C511.8 201.2 512.3 201.5 512.8 201.7C513.1 201.9 513.4 202.1 513.6 202.2C514.8 202.8 516.8 204.4 517.9 205.5C519.3 206.9 522 210.8 522 211.3C522 211.5 522.2 211.9 522.5 212.2C522.8 212.6 523 213 523 213.2C523 213.5 523.2 213.9 523.4 214.3C524.4 216.3 525.6 224 525 224.6C524.9 224.7 514.9 224.8 502.8 224.8C483.5 224.9 480.7 224.9 480.5 225.2C480.2 225.7 480.3 232.9 480.7 234.5C480.9 235.1 481.1 236.2 481.2 236.9C481.6 238.9 482.3 241.1 482.7 241.6C482.8 241.9 483 242.3 483 242.6C483 242.9 483.1 243.3 483.2 243.4C483.4 243.5 483.7 244.2 484.1 244.8C486.4 249.2 489.8 252.9 493.1 254.7C495.1 255.8 495.3 255.9 496.2 256.2C498.3 257 499.3 257.1 502.9 257.1C506.4 257.1 506.8 257 508.9 256.3C511 255.6 512.8 254.9 513.8 254.3C514.9 253.6 515.2 253.4 516.2 252.8C518.2 251.6 521.3 248.9 523.9 246.3C527.1 243.1 527.3 243.1 527.2 246.1L527.1 248.2L525.6 249.9C520.6 255.6 514.1 261.5 511.1 262.9C510.7 263.1 510.2 263.4 510 263.6C509.8 263.8 509.5 264 509.3 264C509.1 264 508.7 264.2 508.3 264.5C508 264.8 507.5 265 507.3 265C507.1 265 506.5 265.2 506.1 265.4C505.7 265.6 505 265.9 504.5 266C504 266.1 503 266.4 502.3 266.6C500.7 267.1 496 267.3 493.6 267ZM739.1 267C737.2 266.8 732.9 265.9 732.4 265.5C732.2 265.4 731.7 265.2 731.1 265C727.8 263.9 723 260.2 720.2 256.5C719.1 255 717 251.2 717 250.6C717 250.5 716.8 249.9 716.5 249.4C716.2 248.8 716 248.2 716 247.9C716 247.7 715.8 247 715.6 246.4C715.1 245 714.5 239.6 714.5 237C714.5 234.4 715.1 229 715.6 227.6C715.8 227 716 226.2 716 225.9C716 225.6 716.2 224.9 716.5 224.4C716.8 223.8 717 223.2 717 223C717 222.8 717.2 222.2 717.5 221.7C717.8 221.1 718.2 220.4 718.3 220.1C718.5 219.8 718.7 219.5 718.8 219.2C718.9 219 719 218.7 719.1 218.5C720 216.3 723.8 211.5 726.9 208.5C729.3 206.2 732.9 203.6 734.2 203.1C734.5 203 734.8 202.9 735.1 202.7C739.3 200.5 743.7 199.5 749.5 199.5C753.2 199.5 757.3 200 758.8 200.6C759.3 200.8 759.9 201 760.2 201C760.7 201 762.3 201.7 765.2 203.3C768.1 204.9 773.5 210.2 774.1 212.2C774.2 212.5 774.4 212.8 774.6 213C774.8 213.2 775 213.5 775 213.7C775 213.9 775.2 214.3 775.4 214.7C775.9 215.4 776.6 217.3 777.1 219.1C777.3 219.8 777.5 220.5 777.6 220.7C777.9 221.2 778.5 227.2 778.5 229.7C778.5 232.5 777.9 237.8 777.4 239.3C777.2 239.8 777 240.6 777 240.8C777 241.1 776.8 241.8 776.5 242.4C776.2 242.9 776 243.5 776 243.8C776 244 775.8 244.4 775.7 244.6C775.5 244.9 775.2 245.4 775.1 245.8C775 246.1 774.7 246.7 774.5 247C774.2 247.4 774 247.8 774 248C774 248.3 772.1 251.2 770.6 253.2C769 255.3 765.4 258.9 763.6 260.3C762.8 260.9 762.1 261.4 762 261.5C761.8 261.7 759.9 262.9 759.2 263.2C758.9 263.4 758.5 263.6 758.2 263.7C753.5 266.5 746.5 267.7 739.1 267ZM916.5 267C915.1 266.8 913.4 265.5 912.7 264.2C911.4 261.5 911.4 262.6 911.3 235.6C911.3 218.2 911.1 210.6 911 210.3C910.8 210.1 909.6 210 906 210C900.8 210 900.8 210 900.8 208.4C900.8 207 901.1 206.5 902.2 206.5C905.2 206.5 908.2 205.3 909.7 203.6C911.6 201.4 911.8 200.1 912 192.2L912.1 185.2L913.2 184.6C913.9 184.3 915 183.8 915.9 183.5C916.7 183.2 917.7 182.8 918 182.6C918.4 182.4 919.1 182.1 919.6 181.9C920.2 181.7 921.2 181.3 922 181C924.4 180 926.1 179.5 926.3 179.6C926.4 179.7 926.5 180.4 926.5 181.3L926.5 182.8L925.3 183.6C923 185.3 922.2 187.8 922.2 192.9C922.2 201.1 924.6 205.2 930.1 206.2C931 206.4 933.2 206.5 935.2 206.5C939.2 206.5 939.2 206.5 939.2 208.4C939.2 210 939.5 210 930.6 210C925.7 210 922.5 210.1 922.4 210.2C922.3 210.4 922.2 220.8 922.2 233.4C922.3 255.4 922.3 256.3 922.7 257C924 259.1 925.9 259.3 928.9 257.7C929.1 257.5 929.7 257.2 930.1 257C931.2 256.5 933.2 255.1 934.8 253.7C936.7 252.1 937 252.2 937 254.6L937 256.5L935.9 257.5C935 258.3 934.1 259 931.2 261.3C930.8 261.7 928.2 263.5 927.5 263.9C927.3 264 926.8 264.3 926.5 264.6C926.1 264.8 925.7 265 925.5 265C925.3 265 924.9 265.2 924.5 265.5C924.2 265.7 923.6 266 923.4 266.1C923.1 266.2 922.4 266.4 921.9 266.6C920.7 267 917.8 267.3 916.5 267ZM352.6 265.1C352.4 265 352.2 264.4 352.2 263.5C352.2 261.8 352.4 261.6 354.1 261.4C359.6 260.8 361.6 259.2 362.8 254.8C362.9 254.3 363 244.7 363 233.2L363 212.4L362.5 211.3C361.4 209.3 360.8 208.9 358.5 208.9C357.3 208.9 356.1 209.1 355.1 209.5C352.6 210.4 352.2 210.3 352.2 208.5C352.2 206.9 352.6 206.4 353.9 206.1C354.3 206 355 205.7 355.5 205.5C356 205.2 356.9 204.8 357.6 204.6C360.1 203.6 361.6 202.9 362.6 202.5C363.2 202.3 364.3 201.8 365.1 201.5C365.9 201.2 367 200.8 367.5 200.5C368.1 200.2 368.6 200 368.8 200C369 200 369.4 199.8 369.8 199.6C370.6 199.2 373.4 199 373.7 199.4C373.9 199.6 374 203.4 374.1 210C374.1 218 374.2 220.4 374.4 220.4C374.6 220.5 374.9 220.2 375 219.9C375.9 217.4 382.4 208.8 385.8 205.6C387.9 203.6 391.2 201.2 392.3 200.9C392.6 200.8 393 200.6 393.2 200.4C393.7 200 396.3 199.5 398.1 199.5C399.8 199.5 403.1 200 403.5 200.4C403.7 200.6 403.9 221 403.7 221.6C403.5 222 399.5 222.2 398.8 221.8C398.7 221.7 398.5 220.7 398.4 219.6C398.3 218.5 398.2 217 398 216.2C396.5 207.3 387.1 207.3 381.4 216.2C380.2 218.1 378 222.5 378 223.1C378 223.3 377.8 223.9 377.5 224.4C377.2 224.9 377 225.6 377 225.8C377 226.1 376.8 226.6 376.7 226.9C376.5 227.3 376.2 228 376.1 228.5C376 229 375.8 230.1 375.5 231C373 239.8 372.5 251.5 374.5 255.9C374.8 256.5 375 257 375 257.2C375 257.5 377.7 260 378.1 260C378.2 260 378.9 260.2 379.6 260.5C381 261 384.4 261.5 386.7 261.5C387.5 261.5 388.3 261.6 388.4 261.8C388.9 262.3 388.8 264.9 388.4 265.1C387.9 265.3 353 265.3 352.6 265.1ZM533.9 265C533.6 264.8 533.5 264.4 533.5 263.4C533.5 262 533.8 261.5 534.7 261.5C537.4 261.5 540.6 260.2 541.9 258.6C544 256.1 543.9 257.9 543.9 233.5L543.9 211.9L543.2 210.9C542 209 540.3 208.2 538.7 208.7C538.3 208.9 537.7 209 537.5 209C537.2 209 536.5 209.2 535.9 209.5C535.3 209.8 534.5 210 534.2 210C533 209.8 533.4 206 534.6 206C535 206 536.8 205.3 538.6 204.5C539.2 204.3 540.2 203.8 540.9 203.5C544.1 202.3 544.9 201.9 545.9 201.5C546.5 201.2 547.1 201 547.2 201C547.4 201 547.9 200.8 548.5 200.5C550.5 199.5 551.4 199.2 553 199.3L554.6 199.4L554.8 210C554.9 221.8 554.9 221.9 556.4 219.7C560.5 213.4 569.6 204.4 574 202.1C574.5 201.8 575.1 201.5 575.4 201.3C577.7 200 580.6 199.2 583.6 199.2C589.4 199.3 592.4 201.6 594.5 207.5L595.1 209.1L595.3 231.6C595.4 255.3 595.4 255.6 596.6 257.3C596.8 257.7 597 258.1 597 258.2C597 258.6 598.6 259.9 599.6 260.4C600.8 260.9 603.5 261.5 604.8 261.5C605.4 261.5 605.7 261.6 605.8 261.9C606.1 262.6 606 264.6 605.7 264.9C605.3 265.3 582.7 265.4 582 265C581.6 264.8 581.5 264.5 581.5 263.4C581.5 262 581.6 261.8 583.4 260.9C583.6 260.7 583.9 260.2 584.1 259.8C584.2 259.3 584.2 248.4 584.2 235.4L584.1 211.9L583.4 210.6C581.9 207.9 578.9 206.9 574.6 207.9C572.6 208.3 569.9 209.6 568.8 210.7C568.6 210.9 568.1 211.3 567.6 211.7C566.7 212.4 563.6 216.1 562.9 217.4C562.7 217.8 562.2 218.6 561.9 219.1C561.5 219.7 561.2 220.3 561.1 220.5C561 220.9 560.8 221.1 560.3 222.1C558.9 224.7 556.6 231.1 555.9 234.2C554.4 240.7 554.1 242.4 554.1 247.8C554.1 254.5 554.6 256.6 556.9 259C558.1 260.3 561.6 261.5 564.1 261.5C565.2 261.5 565.5 261.9 565.5 263.4C565.5 264.5 565.4 264.8 565 265C564.4 265.3 534.5 265.3 533.9 265ZM647.9 265C647.6 264.8 647.5 264.4 647.5 263.4C647.5 261.8 647.8 261.5 649.1 261.5C650.6 261.5 653.2 260.9 654.4 260.3C655.7 259.6 656.6 258.5 657.3 256.5L657.9 254.9L657.9 220.5L657.9 186.1L657.3 184.7C656.1 181.7 654.1 180.2 650.6 179.9C647.9 179.6 647.5 179.3 647.5 177.6C647.5 176.4 647.6 176.2 648.1 176.1C648.4 176 659.9 176 673.6 176.1C696.3 176.1 698.7 176.2 699.9 176.6C700.5 176.8 701.4 177 701.7 177C702.1 177 702.8 177.2 703.4 177.5C703.9 177.8 704.5 178 704.7 178C705.6 178 708.3 179.7 709.9 181.4C711.7 183.2 712.6 184.8 713.4 187.4C714.4 190.5 713.8 198 712.4 200.7C712.2 201.1 712 201.5 712 201.8C712 202 711.8 202.4 711.5 202.8C711.2 203.1 711 203.5 711 203.8C711 204 710.8 204.4 710.5 204.8C710.2 205.1 710 205.5 710 205.6C710 206.5 705 212.3 702 214.9C699.2 217.5 698.6 217.9 694.9 220.2C693.6 221 690.2 222.4 688.8 222.8C685.7 223.5 684.6 223.6 682 223.6C678.8 223.6 676.2 223.2 673 222C672.2 221.8 671.5 221.6 671.4 221.7C671.3 221.7 671.2 228.8 671.2 237.4C671.2 251.3 671.3 253.2 671.7 254.6C672.7 258.3 675.2 260.6 679.2 261.3C680.3 261.4 681.3 261.7 681.4 261.8C681.9 262.2 681.9 264.9 681.4 265.1C680.6 265.4 648.4 265.3 647.9 265ZM785.9 265C785.6 264.8 785.5 264.4 785.5 263.4C785.5 262 785.8 261.5 786.7 261.5C788 261.5 790.4 260.9 791.6 260.4C794.4 259.1 795.7 256.8 796 252.6C796.3 249.4 796.3 214 796 212C795.6 208.8 791.1 207.5 787.2 209.5C785.9 210.2 785.5 210 785.5 208.3C785.5 206.6 785.7 206.3 787.4 205.6C790.3 204.3 793.2 203.2 795.1 202.5C796 202.2 797.1 201.8 797.6 201.5C798.2 201.3 799.3 200.8 800.1 200.5C801 200.2 802 199.8 802.5 199.6C803.6 199.2 806.4 199 806.7 199.4C806.9 199.6 807 209.1 807.1 227.3C807.2 258.4 807 256.1 809.1 258.6C810.4 260.2 813.6 261.5 816.3 261.5C817.2 261.5 817.5 262 817.5 263.4C817.5 264.5 817.4 264.8 817 265C816.4 265.3 786.5 265.3 785.9 265ZM823.9 265C823.4 264.7 823.3 262.2 823.8 261.8C824 261.7 825.1 261.5 826.4 261.3C830 260.8 831.8 259.6 833.2 256.8C834.2 255 834.3 251.8 834.2 231.4L834.1 212.4L833.4 211C832.5 209.5 831.3 208.6 829.8 208.7C828.5 208.7 826.3 209.2 825.6 209.6C824.4 210.4 823.6 210 823.5 208.8C823.4 207.2 823.7 206.5 824.4 206.2C826.8 205.3 827.7 204.9 828.6 204.5C829.2 204.3 830.3 203.8 831.1 203.5C832 203.2 833.1 202.8 833.6 202.5C834.6 202.1 835.3 201.8 838.4 200.5C839.1 200.3 840.1 199.9 840.6 199.6C841.3 199.4 842.2 199.2 843.1 199.3L844.6 199.4L844.8 210.1C844.9 219.8 844.9 220.9 845.3 220.9C845.5 221 845.9 220.7 846.2 220.2C848.2 216.7 857.6 206.4 860.5 204.4C861.3 203.9 862.3 203.2 862.9 202.8C866.7 200.2 869.3 199.4 873.5 199.4C876.6 199.4 878.2 199.7 879.9 200.7C880.9 201.3 883 203.4 883 203.8C883 203.9 883.2 204.3 883.4 204.7C883.7 205 884.1 206.1 884.5 207.1L885.1 208.9L885.3 231.2C885.4 255.5 885.4 255.5 886.8 257.6C888.3 260 891.4 261.5 894.8 261.5C895.4 261.5 895.7 261.6 895.8 261.9C896.1 262.6 896 264.6 895.7 264.9C895.3 265.4 872.5 265.4 871.9 264.9C871.6 264.7 871.5 264.3 871.5 263.3C871.6 262 871.7 261.9 872.7 261.3C874.5 260.2 874.5 261.5 874.5 236.8C874.5 213.4 874.5 212.3 873.4 210.4C871.7 207.4 866.8 206.6 862.6 208.5C862.1 208.7 861.5 209 861.2 209.1C859.7 209.6 854.8 214.3 853.5 216.6C853.1 217.3 852.6 218.1 852.4 218.3C852.2 218.4 852 218.8 852 219C852 219.3 851.9 219.5 851.7 219.6C851.5 219.8 850.4 222.1 849.4 224.4C849.2 224.8 848.8 225.6 848.5 226.3C848.2 226.9 848 227.5 848 227.6C848 227.8 847.8 228.4 847.5 229.1C843.8 238.9 843 253.2 845.8 257.7C847.1 259.6 849.3 260.8 852.5 261.3C853.8 261.4 855 261.7 855.2 261.8C855.7 262.2 855.6 264.7 855 265C854.4 265.3 824.5 265.3 823.9 265ZM753.9 260.3C755.2 260 756.5 259.6 756.8 259.4C757.1 259.2 757.5 259 757.7 259C759 259 763.9 254.2 765 251.9C765.2 251.5 765.5 250.9 765.7 250.6C765.9 250.3 766.1 249.8 766.2 249.6C766.3 249.3 766.5 248.9 766.7 248.6C768.3 245.5 769.2 237.7 768.5 233.2C768.3 232.2 768.1 230.8 768 230C767.9 229.2 767.6 228.2 767.4 227.6C767.2 227.1 767 226.4 767 226.2C767 226 766.8 225.2 766.5 224.6C764.8 220.8 765 221.1 763.7 218.8C761.2 214.1 756.3 209.3 752.1 207.3C751.8 207.2 751.2 206.9 750.8 206.6C746.7 204.6 740.1 204.7 735.4 206.7C732.5 208.1 729.4 210.8 727.9 213.6C727.7 214 727.4 214.5 727.3 214.8C723.3 221.9 723.3 235.4 727.3 243.1C727.5 243.4 727.7 243.8 727.8 244C729.9 248.7 734.5 254.4 737.9 256.6C738.6 257.1 739.3 257.6 739.4 257.8C739.5 257.9 739.7 258 740 258C740.2 258 740.7 258.2 741 258.5C741.3 258.8 741.8 259 742 259C742.2 259 742.7 259.2 743.1 259.4C743.5 259.6 744.5 259.9 745.2 260C746 260.2 747.1 260.4 747.8 260.5C749.6 260.8 751.5 260.8 753.9 260.3ZM451.1 219.8C451 218.6 450.2 215.7 449.6 214.4C447.9 210.6 447.7 210.3 445.7 208.2C442.9 205.3 440 204.1 436 204.1C429.8 204.1 425.2 207.1 421.2 213.6C420.6 214.6 419.6 217.2 419 219.4C418.6 221.1 417.6 221 435.2 220.9L451.1 220.9L451.1 219.8ZM513.2 220.8C513.7 220.5 512.7 215.6 511.7 213.6C510.2 210.7 509.6 209.9 508 208.2C507 207.2 505.8 206.2 505.4 206C505 205.8 504.4 205.5 504.1 205.3C501.1 203.7 495.2 203.7 492.1 205.3C491.9 205.5 491.3 205.8 490.9 206C490.5 206.2 490 206.5 489.8 206.6C489.7 206.8 489.1 207.2 488.5 207.6C485.8 209.6 482.8 214.2 481.9 217.8C481.6 218.7 481.3 219.6 481.2 219.8C480.6 221 480.5 221 497.2 221C505.8 221 513 220.9 513.2 220.8ZM691.3 217.6C691.8 217.4 692.5 217.1 693 216.9C694.1 216.5 696.6 214.2 697.1 213.3C697.3 212.9 697.5 212.4 697.7 212.1C697.8 211.8 698.1 211.2 698.3 210.8C699.8 207.9 700.4 198.7 699.4 195.1C699.2 194.2 699 193.3 699 193C699 192.6 698.8 191.9 698.5 191.4C698.2 190.8 698 190.2 698 190.1C698 188.1 692.9 182 690.5 181.1C690.3 181 689.7 180.8 689.2 180.6C686.7 179.5 680 179.5 677.8 180.6C677.4 180.8 676.8 181 676.6 181C676.3 181 675.8 181.2 675.5 181.5C675.2 181.8 674.7 182 674.6 182C674.1 182 672.1 183.4 671.6 184C671.1 184.7 671.1 185.3 671.2 198.2L671.3 211.7L672.7 212.7C674.5 213.9 675.7 214.7 676.6 215.1C677 215.3 677.5 215.6 677.8 215.7C679.3 216.6 681.7 217.5 683.8 217.9C685.7 218.3 690.2 218.2 691.3 217.6ZM798.5 183.2C797.4 182.6 796.3 181.6 795.6 180.3C794.6 178.7 794.6 175.6 795.6 174C797.8 170.2 802.3 169.2 805.8 171.7C809.5 174.5 809 180.8 804.9 183C803.3 183.9 799.9 184 798.5 183.2Z"/>
</g>
</svg>
