<svg xmlns="http://www.w3.org/2000/svg" viewBox="0 0 960 640" width="960" height="640" role="img" aria-labelledby="il-roro-t il-roro-d" fill="none" stroke-linecap="round" stroke-linejoin="round" font-family="'IBM Plex Mono', ui-monospace, Menlo, Consolas, monospace"><title id="il-roro-t">Ro-ro vessel loading vehicles over its stern ramp</title><desc id="il-roro-d">Technical line drawing: profile of a roll-on/roll-off vessel moored stern-to with its ramp down, a green car driving aboard, a truck and car waiting on the quay, a cut-away of the vehicle decks and a plan of the deck.</desc><style>.illo-nss,.illo-nss>*{vector-effect:non-scaling-stroke}</style><g><defs><pattern id="il-roro-cs" x="-420" y="213" width="31.2" height="21" patternUnits="userSpaceOnUse"><g transform="translate(0 21) scale(1.538)"><path d="M1.5 -1.6V-4.4L4 -5.2L6.6 -7.4H12.2L15.6 -5.2L18.2 -4.6V-1.6Z" fill="#FAF9F5" stroke="#111" stroke-width=".5"/><path d="M7 -7V-5.3H11.6V-7M12.4 -7V-5.3H14.6" stroke="#111" stroke-width=".35"/><circle cx="5" cy="-1.6" r="1.4" fill="#111"/><circle cx="14.8" cy="-1.6" r="1.4" fill="#111"/></g></pattern><pattern id="il-roro-ct" x="-420" y="454.4" width="31.2" height="14.4" patternUnits="userSpaceOnUse"><rect x="1" y="1" width="27.6" height="10.8" rx="2.2" fill="#FAF9F5" stroke="#111" stroke-width=".55"/><path d="M7.8 1.6V11.2M19.8 1.6V11.2" stroke="#111" stroke-width=".4" stroke-opacity=".6"/></pattern><clipPath id="il-roro-brk"><rect x="48" y="0" width="960" height="640"/></clipPath></defs><g><path d="M36 266.4L636 266.4" stroke="#111" stroke-width="1" stroke-opacity=".8"/><path d="M42.8 274.4L92.5 274.4M118.4 274.4L158.9 274.4M182.8 274.4L206.9 274.4M276.9 274.4L299.6 274.4M351.6 274.4L383.3 274.4M425.7 274.4L458.7 274.4M488 274.4L532.9 274.4M557 274.4L580.7 274.4M601.3 274.4L626.1 274.4M63.1 282.4L86.8 282.4M119.4 282.4L139.6 282.4M229 282.4L243.5 282.4M308.9 282.4L332.6 282.4M400.6 282.4L423.1 282.4M493.1 282.4L520.4 282.4M587.7 282.4L626.8 282.4M40.3 290.4L51.7 290.4M157.4 290.4L178.6 290.4M224.7 290.4L256.5 290.4M333.1 290.4L359.9 290.4M460.4 290.4L476.9 290.4M536 290.4L566.2 290.4M607.7 290.4L635.2 290.4M56.7 298.4L75.7 298.4M201 298.4L222.4 298.4M305.9 298.4L316.5 298.4M366.9 298.4L383 298.4M467.1 298.4L475.5 298.4M596.4 298.4L612.2 298.4" stroke="#111" stroke-opacity=".3" stroke-width=".8"/></g><path d="M636 308.4V254.4H924" stroke="#111" stroke-width="1.5" class="illo-nss"/><path d="M636 260.4l7 -6M636 267.4l7 -6M636 274.4l7 -6M636 281.4l7 -6M636 288.4l7 -6M636 295.4l7 -6" stroke="#111" stroke-width=".6" stroke-opacity=".5"/><path d="M646 261.4l7 -7M654 261.4l7 -7M662 261.4l7 -7M670 261.4l7 -7M678 261.4l7 -7M686 261.4l7 -7M694 261.4l7 -7M702 261.4l7 -7M710 261.4l7 -7M718 261.4l7 -7M726 261.4l7 -7M734 261.4l7 -7M742 261.4l7 -7M750 261.4l7 -7M758 261.4l7 -7M766 261.4l7 -7M774 261.4l7 -7M782 261.4l7 -7M790 261.4l7 -7M798 261.4l7 -7M806 261.4l7 -7M814 261.4l7 -7M822 261.4l7 -7M830 261.4l7 -7M838 261.4l7 -7M846 261.4l7 -7M854 261.4l7 -7M862 261.4l7 -7M870 261.4l7 -7M878 261.4l7 -7M886 261.4l7 -7M894 261.4l7 -7M902 261.4l7 -7M910 261.4l7 -7" stroke="#111" stroke-width=".6" stroke-opacity=".5"/><clipPath id="il-roro-uw"><rect x="0" y="266.4" width="960" height="120"/></clipPath><g clip-path="url(#il-roro-brk)"><g><path d="M-366 138L600 138L600 274.8C576 290.4 540 304.8 492 309.6L480 318L-348 318C-384 318 -412.8 310.8 -429.6 297.6C-435.6 284.4 -423.6 273.6 -410.4 274.8C-414 246 -415.2 198 -410.4 168C-404.4 146.4 -388.8 138 -366 138Z" fill="#FAF9F5"/><path d="M-366 138L600 138L600 274.8C576 290.4 540 304.8 492 309.6L480 318L-348 318C-384 318 -412.8 310.8 -429.6 297.6C-435.6 284.4 -423.6 273.6 -410.4 274.8C-414 246 -415.2 198 -410.4 168C-404.4 146.4 -388.8 138 -366 138Z" fill="#E6E2D8" clip-path="url(#il-roro-uw)"/><path d="M-412.8 262.8L600 262.8" stroke="#111" stroke-width=".6" stroke-opacity=".7"/><path d="M60 154.8h19.2v7.2h-19.2ZM99 154.8h19.2v7.2h-19.2ZM138 154.8h19.2v7.2h-19.2ZM177 154.8h19.2v7.2h-19.2ZM216 154.8h19.2v7.2h-19.2ZM255 154.8h19.2v7.2h-19.2ZM294 154.8h19.2v7.2h-19.2ZM333 154.8h19.2v7.2h-19.2ZM372 154.8h19.2v7.2h-19.2ZM411 154.8h19.2v7.2h-19.2ZM450 154.8h19.2v7.2h-19.2ZM489 154.8h19.2v7.2h-19.2ZM528 154.8h19.2v7.2h-19.2Z" stroke="#111" stroke-width=".5" stroke-opacity=".7"/><path d="M-396 240H597M-396 213H597M-396 192H597M-396 171H597" stroke="#111" stroke-width=".5" stroke-opacity=".4" stroke-dasharray="4 3"/><rect x="156" y="208.8" width="96" height="31.2" stroke="#111" stroke-width=".8"/><path d="M156 208.8L252 240" stroke="#111" stroke-width=".4" stroke-opacity=".5"/><rect x="-60" y="226.8" width="8.4" height="13.2" rx="1" stroke="#111" stroke-width=".6"/><g stroke="#111" stroke-width=".7"><circle cx="90" cy="258" r="4.6"/><path d="M83 258L97 258"/></g><g><path d="M288 242.4L296.4 222L283.2 201L294 180L284.4 159.6L540 159.6L547.2 180L536.4 201L544.8 222L540 242.4Z" fill="#F3F1EC"/><clipPath id="il-roro-cut"><path d="M288 242.4L296.4 222L283.2 201L294 180L284.4 159.6L540 159.6L547.2 180L536.4 201L544.8 222L540 242.4Z"/></clipPath><g clip-path="url(#il-roro-cut)"><rect x="276" y="192" width="276" height="21" fill="url(#il-roro-cs)"/><rect x="276" y="171" width="276" height="21" fill="url(#il-roro-cs)"/><rect x="276" y="150" width="276" height="21" fill="url(#il-roro-cs)"/><rect x="297" y="218.4" width="81.6" height="17.4" fill="#FAF9F5" stroke="#111" stroke-width=".6"/><circle cx="309" cy="237" r="1.6" fill="#111"/><circle cx="317.4" cy="237" r="1.6" fill="#111"/><rect x="354" y="234.6" width="1.8" height="3" fill="#111"/><rect x="405" y="218.4" width="81.6" height="17.4" fill="#FAF9F5" stroke="#111" stroke-width=".6"/><circle cx="417" cy="237" r="1.6" fill="#111"/><circle cx="425.4" cy="237" r="1.6" fill="#111"/><rect x="462" y="234.6" width="1.8" height="3" fill="#111"/><path d="M276 240H552M276 213H552M276 192H552M276 171H552" stroke="#111" stroke-width="1"/></g><path d="M288 242.4L296.4 222L283.2 201L294 180L284.4 159.6L540 159.6L547.2 180L536.4 201L544.8 222L540 242.4Z" stroke="#111" stroke-width=".9"/></g><path d="M-366 138L600 138L600 274.8C576 290.4 540 304.8 492 309.6L480 318L-348 318C-384 318 -412.8 310.8 -429.6 297.6C-435.6 284.4 -423.6 273.6 -410.4 274.8C-414 246 -415.2 198 -410.4 168C-404.4 146.4 -388.8 138 -366 138Z" stroke="#111" stroke-width="1.4" class="illo-nss"/></g><g><path d="M-378 138L-370.8 112.8H-276V138" fill="#FAF9F5" stroke="#111" stroke-width="1.4"/><path d="M-368.4 123.6L-279.6 123.6L-279.6 116.4L-366.6 116.4Z" fill="#4A4A47"/><path d="M-330 112.8V87M-344.4 96H-315.6" stroke="#111" stroke-width="1"/><path d="M432 138L480 138L487.2 99.6L441.6 99.6Z" fill="#FAF9F5" stroke="#111" stroke-width="1.4"/><path d="M439.2 106.8L486 106.8L487.2 99.6L441.6 99.6Z" fill="#111"/><path d="M48 131.4L597.6 131.4" stroke="#111" stroke-width=".6"/><path d="M54 131.4V138M69 131.4V138M84 131.4V138M99 131.4V138M114 131.4V138M129 131.4V138M144 131.4V138M159 131.4V138M174 131.4V138M189 131.4V138M204 131.4V138M219 131.4V138M234 131.4V138M249 131.4V138M264 131.4V138M279 131.4V138M294 131.4V138M309 131.4V138M324 131.4V138M339 131.4V138M354 131.4V138M369 131.4V138M384 131.4V138M399 131.4V138M414 131.4V138M429 131.4V138M444 131.4V138M459 131.4V138M474 131.4V138M489 131.4V138M504 131.4V138M519 131.4V138M534 131.4V138M549 131.4V138M564 131.4V138M579 131.4V138M594 131.4V138" stroke="#111" stroke-width=".4" stroke-opacity=".7"/></g></g><path d="M36 266.4L636 266.4" stroke="#111" stroke-width="1" stroke-opacity=".8"/><path d="M600 240L717 252.8L732 254.4L717 255.5L600 249Z" fill="#E6E2D8" stroke="#111" stroke-width="1.4"/><path d="M600 233.4L717 246.2" stroke="#111" stroke-width=".6"/><path d="M594 150L654 239.3" stroke="#111" stroke-width=".6"/><circle cx="600" cy="240" r="2" fill="#111"/><g transform="translate(666.6 246.1) rotate(6.2) scale(-1.538 1.538)" class="illo-vehicle"><path d="M0 -1.1L0 -3.6Q0 -4.4 .8 -4.6L3.0 -5.0L5.6 -7.3H11.8Q13 -7.3 13.8 -6L15.6 -4.8Q17.8 -4.4 17.9 -3.4V-1.1Z" fill="#0A8F43" stroke="#111" stroke-width=".9"/><path d="M6.2 -6.9L4.4 -5H9.4V-6.9ZM10.2 -6.9V-5H14.4L12.6 -6.9Z" fill="#FAF9F5" stroke="#111" stroke-width=".4"/><circle cx="4" cy="-1.4" r="1.7" fill="#111"/><circle cx="14.2" cy="-1.4" r="1.7" fill="#111"/></g><g class="illo-vehicle"><rect x="781.2" y="230.7" width="73.2" height="15.6" fill="#FAF9F5" stroke="#111" stroke-width="1"/><path d="M786.6 231.9V245.1M792 231.9V245.1M797.4 231.9V245.1M802.8 231.9V245.1M808.2 231.9V245.1M813.6 231.9V245.1M819 231.9V245.1M824.4 231.9V245.1M829.8 231.9V245.1M835.2 231.9V245.1M840.6 231.9V245.1M846 231.9V245.1M851.4 231.9V245.1" stroke="#111" stroke-width=".4" stroke-opacity=".4"/><rect x="781.2" y="246.3" width="74.4" height="1.5" fill="#111"/><path d="M762 250.2L762 234.6L764.4 232.8L777 232.8L777 250.2Z" fill="#FAF9F5" stroke="#111" stroke-width="1"/><rect x="763.2" y="235.8" width="6.6" height="5.4" fill="#E6E2D8" stroke="#111" stroke-width=".4"/><circle cx="768" cy="251.4" r="3" fill="#111"/><circle cx="787.2" cy="251.4" r="3" fill="#111"/><circle cx="837.6" cy="251.4" r="3" fill="#111"/><circle cx="845.4" cy="251.4" r="3" fill="#111"/></g><g transform="translate(894.6 254.1) rotate(0) scale(-1.538 1.538)" class="illo-vehicle"><path d="M0 -1.1L0 -3.6Q0 -4.4 .8 -4.6L3.0 -5.0L5.6 -7.3H11.8Q13 -7.3 13.8 -6L15.6 -4.8Q17.8 -4.4 17.9 -3.4V-1.1Z" fill="#FAF9F5" stroke="#111" stroke-width=".9"/><path d="M6.2 -6.9L4.4 -5H9.4V-6.9ZM10.2 -6.9V-5H14.4L12.6 -6.9Z" fill="#E6E2D8" stroke="#111" stroke-width=".4"/><circle cx="4" cy="-1.4" r="1.7" fill="#111"/><circle cx="14.2" cy="-1.4" r="1.7" fill="#111"/></g><g clip-path="url(#il-roro-brk)"><path d="M-360 356L600 356L600 524L-360 524C-402 524 -430.8 488 -430.8 440C-430.8 392 -402 356 -360 356Z" fill="#FAF9F5" stroke="#111" stroke-width="1.4" class="illo-nss"/><g clip-path="url(#il-roro-brk)"><rect x="36" y="368" width="531" height="57.6" fill="url(#il-roro-ct)"/><rect x="36" y="454.4" width="531" height="57.6" fill="url(#il-roro-ct)"/><path d="M36 425.6H588M36 454.4H588" stroke="#111" stroke-width=".6"/></g><rect x="600" y="418.4" width="132" height="43.2" fill="#FAF9F5" stroke="#111" stroke-width="1.1"/><path d="M612 420.8V459.2M624 420.8V459.2M636 420.8V459.2M648 420.8V459.2M660 420.8V459.2M672 420.8V459.2M684 420.8V459.2M696 420.8V459.2M708 420.8V459.2M720 420.8V459.2" stroke="#111" stroke-width=".4" stroke-opacity=".5"/><path d="M636 344V536" stroke="#111" stroke-width="1.5"/><path d="M636 350l6 -6M636 358l6 -6M636 366l6 -6M636 374l6 -6M636 382l6 -6M636 390l6 -6M636 398l6 -6M636 406l6 -6M636 414l6 -6M636 422l6 -6M636 430l6 -6M636 438l6 -6M636 446l6 -6M636 454l6 -6M636 462l6 -6M636 470l6 -6M636 478l6 -6M636 486l6 -6M636 494l6 -6M636 502l6 -6M636 510l6 -6M636 518l6 -6M636 526l6 -6M636 534l6 -6" stroke="#111" stroke-width=".5" stroke-opacity=".5"/><g><rect x="639" y="434.6" width="27.6" height="10.8" rx="3" fill="#0A8F43" stroke="#111" stroke-width=".8"/><path d="M646.8 435.8V444.2M658.8 435.8V444.2" stroke="#FAF9F5" stroke-width=".5"/></g><rect x="781.2" y="432.7" width="73.2" height="14.6" fill="#FAF9F5" stroke="#111" stroke-width=".9"/><rect x="762" y="432.5" width="15" height="15" rx="2" fill="#FAF9F5" stroke="#111" stroke-width=".9"/><path d="M784.8 434V446M788.4 434V446M792 434V446M795.6 434V446M799.2 434V446M802.8 434V446M806.4 434V446M810 434V446M813.6 434V446M817.2 434V446M820.8 434V446M824.4 434V446M828 434V446M831.6 434V446M835.2 434V446M838.8 434V446M842.4 434V446M846 434V446M849.6 434V446" stroke="#111" stroke-width=".3" stroke-opacity=".4"/><g><rect x="867" y="434.6" width="27.6" height="10.8" rx="3" fill="#FAF9F5" stroke="#111" stroke-width=".8"/><path d="M874.8 435.8V444.2M886.8 435.8V444.2" stroke="#111" stroke-width=".5"/></g><path d="M906 471.2H756L720 440H84" stroke="#0A8F43" stroke-width="1.2" stroke-dasharray="4 3" pathLength="1" class="illo-route"/><path d="M90 436L84 440L90 444" stroke="#0A8F43" stroke-width="1.2"/><path d="M36 440L612 440" stroke="#111" stroke-width=".6" stroke-dasharray="14 3 2 3" stroke-opacity=".5"/></g><path d="M48 128V219L42 225L54 231L48 237V328" stroke="#111" stroke-width="1"/><path d="M48 346V431L42 437L54 443L48 449V534" stroke="#111" stroke-width="1"/><g><path d="M600 554L732 554" stroke="#111" stroke-width=".6"/><path d="M597 557L603 551" stroke="#111" stroke-width="1"/><path d="M600 530L600 550" stroke="#111" stroke-width=".5" stroke-opacity=".6"/><path d="M729 557L735 551" stroke="#111" stroke-width="1"/><path d="M732 530L732 550" stroke="#111" stroke-width=".5" stroke-opacity=".6"/><text x="666" y="565" font-size="9" text-anchor="middle" fill="#111" letter-spacing=".06em" paint-order="stroke" stroke="#F3F1EC" stroke-width="3">22 000</text></g><path d="M14 26V14H26M934 14H946V26M946 614V626H934M26 626H14V614" fill="none" stroke="#111" stroke-opacity=".5" stroke-width="1" class="illo-furniture"/><text x="40" y="52" font-size="9" fill="#4A4A47" letter-spacing=".12em" class="illo-furniture">GPL · IL-08</text><text x="40" y="66" font-size="9" fill="#4A4A47" letter-spacing=".12em" class="illo-furniture">RO-RO</text><g fill="none" stroke="#111" stroke-opacity=".6" stroke-width=".8" class="illo-furniture"><circle cx="912" cy="50" r="5"/><path d="M903 50H921M912 41V59"/></g><g class="illo-furniture illo-scale"><rect x="796" y="600" width="120" height="4" fill="none" stroke="#111" stroke-width=".8"/><rect x="796" y="600" width="30" height="4" fill="#111"/><rect x="856" y="600" width="30" height="4" fill="#111"/><text x="796" y="596" font-size="8" text-anchor="middle" fill="#4A4A47" letter-spacing=".04em">0</text><text x="856" y="596" font-size="8" text-anchor="middle" fill="#4A4A47" letter-spacing=".04em">10</text><text x="916" y="596" font-size="8" text-anchor="middle" fill="#4A4A47" letter-spacing=".04em">20 m</text></g></g></svg>
